<svg version="1.0" xmlns="http://www.w3.org/2000/svg" width="586.667" height="586.667" viewBox="0 0 440 440"><path d="M202.9.4c-.2.2-3.3.6-6.9 1-3.6.3-7.4.8-8.5 1-1.1.2-4 .7-6.5 1.1-16.5 2.6-39.5 10.2-57.5 19C85.6 41.1 54.8 69 32.8 104.6c-6.4 10.3-11.3 19.9-15.2 29.4-1.5 3.6-3.1 7.4-3.5 8.5-2.3 5.4-6.6 19.2-7.7 24.8-.2 1-.6 2.7-.9 3.6-1 3.2-3.5 18.4-4.3 25.6-1.3 13.6-.5 53.5 1.2 56.4.2.3.7 2.8 1 5.6 1 6.9 5.2 23.5 8.3 32.5 18.6 53.5 56.2 97.4 105.5 123.5 24.3 12.8 51.5 21.1 79.3 24.3 7.7.9 37.8.9 47.1 0 10.1-1 30.2-5.2 41.4-8.7 77.6-24.1 135-88.2 151.1-168.6 2.7-13.3 3.7-26.9 3.4-45.5-.2-10.7-.6-20.6-.8-22-.3-1.4-1.1-5.9-1.7-10-1.6-9.8-1.5-9.5-3.5-17C416 97.8 367 41.8 301 15.5c-15.3-6.1-37.1-11.7-54.5-14.1-3.8-.5-43.2-1.4-43.6-1z"/></svg>