<svg xmlns="http://www.w3.org/2000/svg" viewBox="0 0 150 85.49"><path d="M150 6.64v1.84c-.12.43-.24.87-.37 1.3-1.03 3.48-2.87 6.57-4.78 9.62-3.68 5.83-7.97 11.22-12.11 16.71-2.19 2.91-4.33 5.87-6.27 8.94-1.6 2.53-1.22 5.05.71 7.35.34.41.7.82 1.08 1.19 3.43 3.35 6.89 6.66 10.29 10.05 3.72 3.72 7.2 7.65 9.9 12.2.73 1.23 1.16 2.54 1.36 3.94.29 2.08-.35 3.49-2.25 4.39-.92.44-1.98.76-2.99.8-3.44.16-6.88.17-10.32.25-4.1.09-8.21.29-12.31.25-3.85-.04-7.24-1.65-10.04-4.15-2.81-2.5-5.3-5.36-7.9-8.08-1.65-1.73-3.18-3.6-4.92-5.22-1.04-.97-2.35-1.69-3.63-2.33-1.18-.58-2.4-.31-3.42.57-1.57 1.34-2.64 3-3.25 4.99-.84 2.71-1.07 5.48-1.07 8.3 0 3.17-1.42 4.86-4.39 5.41a9.4 9.4 0 01-1.67.13c-2.88.02-5.76-.03-8.65.03-3.23.07-6.41-.25-9.56-.98-5.32-1.23-10.2-3.43-14.81-6.35-5.7-3.61-11.1-7.59-15.27-12.94-3.85-4.94-7.68-9.93-11.18-15.12C13.61 37.03 6.62 23.48.59 9.42c-.22-.51-.38-1.06-.5-1.6-.35-1.64.3-2.9 1.89-3.45.85-.29 1.79-.46 2.69-.47 7.06-.09 14.13-.13 21.19-.17 2.51-.02 4.89 1.6 5.86 3.93.28.68.53 1.38.86 2.04 2.89 5.9 5.74 11.82 8.73 17.66 1.39 2.71 3.01 5.32 4.67 7.88 1.52 2.34 3.39 4.4 5.77 5.94 1.24.8 2.54.86 3.88.39.28-.1.58-.34.74-.59.9-1.41 1.54-2.93 1.81-4.59.88-5.45 1.31-10.93.89-16.46-.2-2.67-.51-5.32-1.2-7.92-.71-2.66-2.33-4.42-4.95-5.24-.8-.25-1.62-.43-2.44-.61-.8-.18-.95-.44-.52-1.15.22-.37.51-.7.79-1.03 1.95-2.2 4.56-2.95 7.35-3.33 5.68-.77 11.4-.76 17.11-.54 2.41.09 4.81.49 7.2.87 2.8.44 4.66 2.01 5.15 4.89.25 1.5.45 3.03.43 4.55-.11 6.76-.34 13.51-.46 20.27-.04 1.88.07 3.77.24 5.65.15 1.67.66 3.25 1.93 4.46 1.09 1.04 2.52 1.25 3.66.29 1.58-1.32 3.17-2.68 4.49-4.24 3.31-3.93 5.93-8.35 8.51-12.78 3.13-5.38 5.73-11.03 8-16.82.45-1.14 1.01-2.29 2.18-2.73.96-.37 2.07-.45 3.12-.47 7.93-.13 15.86-.22 23.79-.3.84-.01 1.69 0 2.51.15 1.7.33 3.36.82 4.04 2.74"/></svg>