<svg xmlns="http://www.w3.org/2000/svg" viewBox="0 0 819.4 817.81"><path d="M818.94 311.7c-.31-33.3-1.58-66.64-4.05-99.84-2.53-34-11.58-66.66-28.3-96.58C751.77 52.92 697.24 18.89 627.9 6.64 597.91 1.34 567.55.15 537.27.07c-93.32-.25-186.64.22-279.95.87-26.99.19-53.94 2.45-80.31 8.83-81.6 19.76-136.2 68.85-161.43 149.47-10.15 32.44-12.62 66.01-13.32 99.71C1.24 308.76.73 358.59 0 408.41c.22 0 .43 0 .65.01 0 18.83-.12 37.67.02 56.5.35 46.82-.06 93.68 4.52 140.35 3.2 32.59 11.07 64.05 26.53 93.06 34.37 64.51 89.55 99.75 160.41 112.35 31.96 5.68 64.33 6.52 96.63 6.73 80.99.52 162 .55 242.99-.01 34.12-.23 68.35-1.02 102.02-7.76 35.55-7.12 68.65-19.96 97.48-42.53 52.35-40.98 77.4-96.48 83.56-161.08 3.08-32.29 3.83-64.87 4.13-97.33.61-65.67.61-131.34 0-197zm-73.91 237.66c-.56 26.81-1.51 53.67-8.25 79.85-15.72 61.07-55.41 96.9-116.78 108.14-21.84 4-44.34 5.62-66.57 6.01-63.48 1.13-126.97 1.41-190.46 1.35-38.98-.04-77.97-1.08-116.95-2.12-24.72-.66-49.17-3.76-72.61-12.19-47.26-17-76.29-50.59-89.21-98.67-7.29-27.12-8.38-54.96-8.93-82.76-.92-46.82-1.22-93.64-1.78-140.47.56-46.67.87-93.33 1.78-139.98.53-26.97 1.53-53.99 8.29-80.35 15.68-61.11 55.41-96.9 116.77-108.14C222.33 76 245 74.4 267.4 74c63.31-1.13 126.64-1.41 189.96-1.35 38.98.04 77.97 1.08 116.95 2.13 24.72.66 49.17 3.76 72.61 12.19 47.25 17.01 76.29 50.59 89.21 98.67 4.95 18.43 7.51 37.29 7.83 56.29 1.07 64.14 1.93 128.29 2.28 192.44.2 38.34-.4 76.67-1.21 114.99zm-334.59-350.8c-116.08-.22-210.31 93.71-210.4 209.71-.08 116.51 93.71 210.51 210.07 210.54 116.15.03 210.11-93.86 210.14-209.96.04-116.22-93.59-210.07-209.81-210.29zm-1.58 347.05c-75.5-.45-136.18-62.55-135.64-138.85.53-74.83 62.64-135.39 138.48-135.01 74.45.38 135.77 62.46 135.39 137.1-.4 76.3-61.97 137.21-138.23 136.76zm268.5-355.3c.04 27.11-21.72 49.1-48.7 49.22-27.08.12-49.42-22.17-49.35-49.24.07-27 22.02-48.83 49.11-48.83 27.18 0 48.9 21.68 48.94 48.85z"/></svg>