<svg xmlns="http://www.w3.org/2000/svg" viewBox="0 0 150 149.71"><path d="M149.92 57.06c-.06-6.1-.29-12.2-.74-18.28-.46-6.22-2.12-12.2-5.18-17.68-6.37-11.42-16.36-17.65-29.05-19.89C109.46.24 103.9.02 98.36.01 81.27-.03 64.19.05 47.11.17c-4.94.03-9.87.45-14.7 1.62C17.47 5.41 7.47 14.39 2.85 29.15.99 35.09.54 41.23.41 47.4.23 56.52.13 65.64 0 74.76h.12c0 3.45-.02 6.9 0 10.34.06 8.57-.01 17.15.83 25.69.59 5.97 2.03 11.73 4.86 17.04 6.29 11.81 16.39 18.26 29.36 20.57 5.85 1.04 11.78 1.19 17.69 1.23 14.83.1 29.66.1 44.48 0 6.25-.04 12.51-.19 18.68-1.42 6.51-1.3 12.57-3.65 17.84-7.79 9.58-7.5 14.17-17.66 15.3-29.49.56-5.91.7-11.88.76-17.82.11-12.01.11-24.03 0-36.05zm-13.53 43.51c-.1 4.91-.28 9.82-1.51 14.62-2.88 11.18-10.14 17.74-21.38 19.8-4 .73-8.12 1.03-12.19 1.1-11.62.21-23.24.26-34.87.25-7.14-.01-14.27-.2-21.41-.39-4.53-.12-9-.69-13.29-2.23-8.65-3.11-13.97-9.26-16.33-18.06-1.33-4.96-1.53-10.06-1.63-15.15-.17-8.57-.22-17.14-.33-25.71.1-8.54.16-17.09.33-25.62.1-4.94.28-9.88 1.52-14.71 2.87-11.19 10.14-17.74 21.38-19.8 4.03-.74 8.18-1.03 12.28-1.1 11.59-.21 23.18-.26 34.77-.25 7.14.01 14.27.2 21.41.39 4.53.12 9 .69 13.29 2.23 8.65 3.11 13.97 9.26 16.33 18.06.91 3.37 1.37 6.83 1.43 10.3.2 11.74.35 23.48.42 35.23.03 7-.08 14.02-.22 21.04zM75.14 36.35c-21.25-.04-38.5 17.15-38.52 38.39-.01 21.33 17.15 38.54 38.46 38.54 21.26.01 38.46-17.18 38.47-38.44 0-21.27-17.14-38.45-38.41-38.49zm-.29 63.53c-13.82-.08-24.93-11.45-24.83-25.42.1-13.7 11.47-24.78 25.35-24.72 13.63.07 24.85 11.43 24.78 25.1a25.082 25.082 0 01-25.3 25.04zM124 34.84c.01 4.96-3.98 8.99-8.92 9.01-4.96.02-9.05-4.06-9.03-9.01.01-4.94 4.03-8.94 8.99-8.94a8.91 8.91 0 018.96 8.94z"/></svg>