<svg xmlns="http://www.w3.org/2000/svg" viewBox="0 0 980.15 558.58"><path d="M980.15 43.42v12c-.81 2.84-1.59 5.69-2.43 8.52-6.74 22.77-18.74 42.95-31.26 62.83-24.02 38.11-52.06 73.31-79.14 109.22-14.32 18.99-28.28 38.35-41 58.42-10.47 16.51-7.96 33 4.67 48.02 2.25 2.68 4.56 5.33 7.06 7.77 22.39 21.9 45.05 43.53 67.21 65.67 24.32 24.3 47.06 49.96 64.72 79.73 4.77 8.04 7.58 16.59 8.88 25.76 1.92 13.58-2.29 22.83-14.7 28.68-6.03 2.85-12.94 4.95-19.55 5.26-22.46 1.05-44.97 1.11-67.46 1.61-26.82.59-53.64 1.91-80.45 1.65-25.18-.24-47.3-10.8-65.6-27.14-18.33-16.36-34.63-35.02-51.65-52.83-10.81-11.3-20.76-23.5-32.18-34.13-6.79-6.32-15.35-11.07-23.75-15.23-7.72-3.82-15.66-2-22.34 3.71-10.26 8.77-17.23 19.62-21.24 32.58-5.49 17.72-6.98 35.82-6.96 54.26.02 20.69-9.26 31.76-28.67 35.32-3.58.66-7.29.83-10.94.85-18.83.11-37.67-.2-56.49.21-21.12.46-41.9-1.61-62.45-6.38-34.74-8.05-66.68-22.43-96.79-41.47-37.26-23.56-72.5-49.58-99.77-84.58-25.17-32.31-50.2-64.87-73.05-98.82C88.96 241.95 43.25 153.41 3.85 61.58c-1.43-3.34-2.5-6.9-3.26-10.46-2.26-10.69 1.98-18.96 12.37-22.52 5.57-1.9 11.68-3.01 17.56-3.08 46.16-.57 92.32-.84 138.48-1.12 16.39-.1 31.94 10.45 38.27 25.67 1.85 4.45 3.48 9.02 5.6 13.35 18.91 38.53 37.48 77.23 57.06 115.42 9.09 17.73 19.67 34.77 30.51 51.52 9.9 15.32 22.18 28.72 37.71 38.79 8.07 5.23 16.57 5.6 25.34 2.55 1.86-.65 3.79-2.21 4.85-3.88 5.86-9.21 10.09-19.12 11.83-29.97 5.72-35.64 8.53-71.42 5.81-107.54-1.32-17.47-3.33-34.77-7.85-51.76-4.63-17.39-15.24-28.88-32.36-34.23-5.22-1.63-10.59-2.83-15.95-4.01-5.26-1.16-6.22-2.89-3.41-7.52 1.46-2.4 3.31-4.59 5.18-6.7 12.75-14.4 29.82-19.26 48.01-21.73C416.74-.69 454.07-.58 491.37.86c15.74.61 31.45 3.21 47.05 5.68 18.27 2.89 30.45 13.16 33.62 31.95 1.65 9.8 2.95 19.83 2.79 29.73-.72 44.15-2.21 88.29-3.02 132.44-.23 12.29.48 24.64 1.55 36.89.96 10.94 4.28 21.22 12.61 29.16 7.12 6.79 16.44 8.18 23.94 1.91 10.31-8.62 20.71-17.49 29.31-27.72 21.61-25.7 38.77-54.54 55.6-83.48 20.45-35.17 37.43-72.05 52.26-109.91 2.93-7.48 6.6-14.94 14.22-17.86 6.29-2.41 13.55-2.97 20.4-3.09 51.81-.85 103.62-1.42 155.43-1.98 5.48-.06 11.06-.02 16.42.95 11.34 2.08 22.17 5.34 26.6 17.89"/></svg>