<svg xmlns="http://www.w3.org/2000/svg" viewBox="0 0 188.59 188.91"><path d="M94.97 155.57c-.1 1.69-.01 3.4-.01 5.1h-1.68c0-6.52.48-13.08-.11-19.55-.89-9.68-1.62-19.53-4.06-28.88-3.65-13.95-13.12-20.52-27.42-20.45-3.74.02-5.34-1.26-6.05-4.72-2.78-13.6-4.78-27.12 2.71-40.01 7.99-13.76 20.1-22.19 35.74-22.65 12.01-.35 22.63 5.54 30.79 14.95 13.06 15.05 12.02 32.14 7.21 49.72-.3 1.09-2.26 2.54-3.36 2.47-18.97-1.15-29.24 12.79-31.4 29.26-1.53 11.49-1.65 23.17-2.36 34.76zm92.73-42.76c1.76-15.91.36-32.17.36-48.71-12.77-2.15-25.54-4.3-38.95-6.56 1.69 13.8.49 26.42-2.76 38.88-2.31 8.86-2.2 8.89-11.4 8.58-10.41-.35-17.12 3.67-20.82 12.85-5.14 12.77-5.04 26.2-5.07 40.22 15.43-3.17 30.19-5.61 44.62-9.31 18.63-4.74 31.84-16.36 34.02-35.95zM27.17 21.08c5.02 1.08 10.24 1.44 15.09 2.99 7.68 2.45 14.03 1.28 19.31-4.94.41-.48 1.1-.73 1.67-1.06 25.45-15.16 65.31-10.09 81.02 21 .63 1.24 2.2 2.58 3.52 2.82 13.32 2.42 26.68 4.62 40.47 6.96 0-8.05.01-15.69 0-23.33-.02-15.19-10.39-25.49-25.72-25.5C116.92-.01 71.3 0 25.68 0c-5.97 0-11.4 1.58-16.14 5.27 2.91 8.72 8.84 13.92 17.63 15.81zm52.18 140.13c-.45-10.61-.31-21.35-2.02-31.78-3.36-20.5-8.13-24.1-29.06-24.36-2.75-.03-4.44-.65-4.93-3.44-1.63-9.28-3.91-18.5-4.68-27.85-.95-11.37-.02-22.78 5.21-34.06-9.91-1.65-19.07-3.17-28.7-4.77 9.41 45.88 18.65 90.96 28.04 136.74 11.67-2.38 22.72-4.54 33.71-7 1.05-.24 2.48-2.31 2.43-3.48zm84.37.86c-32.95 6.64-65.88 13.41-98.81 20.16-6.19 1.27-12.35 2.65-18.53 3.98l-.03 1.57c1.39.37 2.78 1.06 4.17 1.06 37.95.06 75.9.14 113.85-.01 11.29-.04 21.48-7.93 23.37-18.75 1.12-6.43.21-13.22.21-20.66-7.35 6.32-15.07 10.81-24.23 12.65zM18.19 124.24C12.44 96.56 6.68 68.89.65 39.89c-.45 1.9-.6 2.22-.6 2.54-.03 40.83-.15 81.66.1 122.49.02 4.07 2.12 8.19 3.63 12.14.35.93 2.31 1.9 3.4 1.76 3.1-.39 6.21-1.1 9.18-2.11 6.38-2.17 11.39-10.04 9.29-17.53-3.2-11.45-5.03-23.28-7.46-34.94z"/></svg>