<svg xmlns="http://www.w3.org/2000/svg" viewBox="0 0 226.32 32.47">
<path d="M125.62,5.18c0-1.86,1.14-2.97,2.6-3.92
	c1.78-1.15,4.25-1.45,6.32-1.15c1.89,0.27,3.76,1.06,5.05,2.5c0.55,0.61,0.95,1.63,0.95,2.46v22.32c0,1.69-1.2,2.99-2.57,3.81
	c-1.68,1-3.23,1.25-5.18,1.25c-2.8,0-7.17-1.75-7.17-5.06V5.18L125.62,5.18z M131.52,29.38c0,0.23,0.29,0.5,0.47,0.62
	c0.54,0.36,1.23,0.4,1.83,0.18c0.3-0.11,0.83-0.42,0.83-0.8V3.12c0-0.26-0.27-0.52-0.46-0.66c-0.07-0.05-0.14-0.09-0.22-0.13
	c-0.24-0.12-0.52-0.17-0.79-0.17c-0.52-0.01-1.66,0.28-1.66,0.96V29.38L131.52,29.38z M204.47,2.3h-2.27v11.92h5.31v2.13h-5.31V30.2
	h2.27V21.7h5.9v10.63h-14.65c-0.21,0-0.41-0.07-0.57-0.21c-0.36-0.33-0.27-0.82-0.27-1.25V30.2h1.43V2.33
	c-0.51,0.02-1.04-0.02-1.3-0.42c-0.09-0.13-0.13-0.29-0.13-0.45V0.17h15.49v10.63h-5.9V2.3L204.47,2.3z M186.91,2.3h-2.33v11.92
	h5.37v2.13h-5.37V30.2h2.33V21.7h5.84v10.63h-15.43V30.2h1.37V2.3h-1.37V0.17h15.43v10.63h-5.84V2.3L186.91,2.3z M107.83,5
	c0-0.84,0.42-1.83,0.99-2.44c0.15-0.16,0.31-0.31,0.47-0.46c1.2-1.06,2.74-1.69,4.3-1.95c2.15-0.36,4.74-0.09,6.59,1.13
	c0.68,0.45,1.2,0.8,1.7,1.48c0.57,0.76,0.86,1.5,0.86,2.47v5.57h-5.9V3.23c0-0.14-0.03-0.27-0.1-0.4c-0.44-0.76-1.84-0.87-2.53-0.39
	c-0.19,0.13-0.49,0.36-0.49,0.62v26.32c0,0.24,0.26,0.48,0.44,0.6c0.55,0.37,1.24,0.43,1.85,0.19c0.32-0.12,0.83-0.46,0.83-0.85
	V21.7h5.9v5.52c0,2.65-2.37,4.16-4.63,4.87c-2.96,0.92-7.34,0.19-9.38-2.29c-0.54-0.66-0.91-1.49-0.91-2.35V5L107.83,5z M151.82,2.3
	h-2.04v12.03h5.08v2.13h-5.08V30.2h1.43v2.13h-8.69V30.2h1.37V2.3h-1.37V0.17h15.14v10.63h-5.84V2.3L151.82,2.3z M169.08,2.3h-1.98
	v12.03h5.03v2.13h-5.03V30.2h1.37v2.13h-8.69V30.2h1.43V2.3h-1.43V0.17h15.15v10.63h-5c-0.5,0-0.83-0.33-0.83-0.84V2.3L169.08,2.3z
	 M3.1,13.14c1.71,0,3.1,1.39,3.1,3.1s-1.39,3.1-3.1,3.1c-1.71,0-3.1-1.39-3.1-3.1S1.39,13.14,3.1,13.14L3.1,13.14z M223.22,13.14
	c1.71,0,3.1,1.39,3.1,3.1s-1.39,3.1-3.1,3.1s-3.1-1.39-3.1-3.1S221.51,13.14,223.22,13.14L223.22,13.14z M17.36,30.63V2.07
	c-0.02,0-0.04,0-0.06,0c-0.41,0.02-0.97,0.12-1.24-0.29c-0.06-0.1-0.1-0.21-0.1-0.33v-1.2h8.54c1.48,0,2.75,0.33,4.06,0.99
	c1.43,0.72,2.87,2.2,2.87,3.9v22.39c0,1.3-0.77,2.38-1.74,3.18c-1.66,1.36-3.74,1.76-5.84,1.76H16.6c-0.14,0-0.28-0.04-0.4-0.13
	c-0.35-0.28-0.24-0.8-0.24-1.2v-0.5H17.36L17.36,30.63z M22.84,2.07v28.56h1.45c0.65,0,1.67-0.43,1.67-1.19V3.23
	c0-0.48-0.58-0.94-1-1.06C24.68,2.09,23.47,2.04,22.84,2.07L22.84,2.07z M46.67,15.5c0.07,0.03,0.13,0.06,0.19,0.09
	c0.77,0.39,1.47,0.9,1.99,1.6c0.62,0.83,0.82,1.81,0.82,2.83v9.68c0,0.77,0.03,0.93,0.84,0.93h0.51v1.83h-0.51
	c-1.35,0-2.94,0.09-4.21-0.39c-1.97-0.74-2.16-2.43-2.16-4.29v-8.42c0-0.46,0.1-1.92-0.15-2.27c-0.34-0.46-0.91-0.7-1.47-0.7h-1.45
	v14.22h0.75c0.38,0,0.63,0.25,0.63,0.64c0,0.36,0.09,0.79-0.22,1.05c-0.12,0.1-0.26,0.15-0.42,0.15h-7.62v-1.83h1.39V2.08h-1.39
	V0.25h8.49c1.24,0,2.67,0.28,3.78,0.86l0.76,0.42l0.01,0.01c0.01,0.01,0.02,0.01,0.02,0.02c0.02,0.01,0.03,0.02,0.05,0.03
	c1.67,1.05,2.35,2.27,2.35,4.25v4.95c0,1.48-0.19,2.46-1.27,3.54c-0.4,0.4-0.84,0.73-1.35,0.99C46.93,15.38,46.8,15.44,46.67,15.5
	L46.67,15.5z M41.08,2.07v12.5h1.67c0.13,0,0.41-0.08,0.53-0.13c0.39-0.17,0.87-0.54,0.87-1.02V3.14c0-0.19-0.21-0.46-0.34-0.59
	c-0.12-0.12-0.26-0.22-0.42-0.29C42.79,1.99,41.86,2.04,41.08,2.07L41.08,2.07z M89.05,2.07c-0.09,0-0.17,0-0.24,0
	c-0.36-0.01-0.73-0.01-1.09,0c-0.42,0-0.84,0.01-1.26,0.02v12.36h5.25v1.83h-5.25v14.35h2.59v-8.59h5.48v9.79
	c0,0.38-0.26,0.63-0.64,0.63H80.22c-0.14,0-0.28-0.04-0.4-0.13c-0.35-0.28-0.24-0.8-0.24-1.2v-0.5h1.39V2.08h-0.75
	c-0.38,0-0.64-0.26-0.64-0.64v-1.2h14.94v10.43h-5.48V2.07L89.05,2.07z M59.76,2.08v28.55h1.34v1.83H52.9v-1.83h1.34V2.08H52.9V0.25
	h8.21v1.83H59.76L59.76,2.08z M64.27,2.08h-0.79c-0.38,0-0.64-0.26-0.64-0.64v-1.2h8.22v1.83h-1.29l0.64,6.06
	c0.15,1.11,0.23,2.22,0.37,3.32c0.35,2.75,0.54,5.52,0.89,8.26l0.37,3.32c0.01,0.08,0.02,0.17,0.03,0.25l2.44-18.59l0.32-2.63h-2.17
	V0.25h2.4h2.29h1.24v1.83h-1.47l-3.87,30.38h-4.79c-0.14,0-0.28-0.04-0.39-0.13c-0.25-0.2-0.25-0.44-0.28-0.71
	c-0.19-1.75-0.46-3.49-0.62-5.24l-1.03-8.57c-0.11-1-0.24-2.01-0.36-3.01c-0.2-1.65-0.4-3.3-0.6-4.96
	c-0.22-1.82-0.44-3.65-0.66-5.47c-0.07-0.63-0.15-1.26-0.22-1.88C64.31,2.36,64.29,2.22,64.27,2.08L64.27,2.08z"/>
</svg>
