<svg xmlns="http://www.w3.org/2000/svg" viewBox="0 0 150 149.71">
<path d="M149.92,57.06c-0.06-6.1-0.29-12.2-0.74-18.28c-0.46-6.22-2.12-12.2-5.18-17.68c-6.37-11.42-16.36-17.65-29.05-19.89
	c-5.49-0.97-11.05-1.19-16.59-1.2C81.27-0.03,64.19,0.05,47.11,0.17c-4.94,0.03-9.87,0.45-14.7,1.62
	C17.47,5.41,7.47,14.39,2.85,29.15C0.99,35.09,0.54,41.23,0.41,47.4C0.23,56.52,0.13,65.64,0,74.76c0.04,0,0.08,0,0.12,0
	c0,3.45-0.02,6.9,0,10.34c0.06,8.57-0.01,17.15,0.83,25.69c0.59,5.97,2.03,11.73,4.86,17.04c6.29,11.81,16.39,18.26,29.36,20.57
	c5.85,1.04,11.78,1.19,17.69,1.23c14.83,0.1,29.66,0.1,44.48,0c6.25-0.04,12.51-0.19,18.68-1.42c6.51-1.3,12.57-3.65,17.84-7.79
	c9.58-7.5,14.17-17.66,15.3-29.49c0.56-5.91,0.7-11.88,0.76-17.82C150.03,81.1,150.03,69.08,149.92,57.06z M136.39,100.57
	c-0.1,4.91-0.28,9.82-1.51,14.62c-2.88,11.18-10.14,17.74-21.38,19.8c-4,0.73-8.12,1.03-12.19,1.1
	c-11.62,0.21-23.24,0.26-34.87,0.25c-7.14-0.01-14.27-0.2-21.41-0.39c-4.53-0.12-9-0.69-13.29-2.23
	c-8.65-3.11-13.97-9.26-16.33-18.06c-1.33-4.96-1.53-10.06-1.63-15.15c-0.17-8.57-0.22-17.14-0.33-25.71
	c0.1-8.54,0.16-17.09,0.33-25.62c0.1-4.94,0.28-9.88,1.52-14.71c2.87-11.19,10.14-17.74,21.38-19.8c4.03-0.74,8.18-1.03,12.28-1.1
	c11.59-0.21,23.18-0.26,34.77-0.25c7.14,0.01,14.27,0.2,21.41,0.39c4.53,0.12,9,0.69,13.29,2.23c8.65,3.11,13.97,9.26,16.33,18.06
	c0.91,3.37,1.37,6.83,1.43,10.3c0.2,11.74,0.35,23.48,0.42,35.23C136.64,86.53,136.53,93.55,136.39,100.57z M75.14,36.35
	c-21.25-0.04-38.5,17.15-38.52,38.39c-0.01,21.33,17.15,38.54,38.46,38.54c21.26,0.01,38.46-17.18,38.47-38.44
	C113.55,53.57,96.41,36.39,75.14,36.35z M74.85,99.88C61.03,99.8,49.92,88.43,50.02,74.46c0.1-13.7,11.47-24.78,25.35-24.72
	c13.63,0.07,24.85,11.43,24.78,25.1C100.08,88.81,88.81,99.96,74.85,99.88z M124,34.84c0.01,4.96-3.98,8.99-8.92,9.01
	c-4.96,0.02-9.05-4.06-9.03-9.01c0.01-4.94,4.03-8.94,8.99-8.94C120.02,25.9,123.99,29.86,124,34.84z"/>
</svg>
