<svg xmlns="http://www.w3.org/2000/svg" viewBox="0 0 819.4 817.81">
<path d="M818.94,311.7c-0.31-33.3-1.58-66.64-4.05-99.84c-2.53-34-11.58-66.66-28.3-96.58
	C751.77,52.92,697.24,18.89,627.9,6.64c-29.99-5.3-60.35-6.49-90.63-6.57c-93.32-0.25-186.64,0.22-279.95,0.87
	c-26.99,0.19-53.94,2.45-80.31,8.83C95.41,29.53,40.81,78.62,15.58,159.24C5.43,191.68,2.96,225.25,2.26,258.95
	C1.24,308.76,0.73,358.59,0,408.41c0.22,0,0.43,0,0.65,0.01c0,18.83-0.12,37.67,0.02,56.5c0.35,46.82-0.06,93.68,4.52,140.35
	c3.2,32.59,11.07,64.05,26.53,93.06c34.37,64.51,89.55,99.75,160.41,112.35c31.96,5.68,64.33,6.52,96.63,6.73
	c80.99,0.52,162,0.55,242.99-0.01c34.12-0.23,68.35-1.02,102.02-7.76c35.55-7.12,68.65-19.96,97.48-42.53
	c52.35-40.98,77.4-96.48,83.56-161.08c3.08-32.29,3.83-64.87,4.13-97.33C819.55,443.03,819.55,377.36,818.94,311.7z M745.03,549.36
	c-0.56,26.81-1.51,53.67-8.25,79.85c-15.72,61.07-55.41,96.9-116.78,108.14c-21.84,4-44.34,5.62-66.57,6.01
	c-63.48,1.13-126.97,1.41-190.46,1.35c-38.98-0.04-77.97-1.08-116.95-2.12c-24.72-0.66-49.17-3.76-72.61-12.19
	c-47.26-17-76.29-50.59-89.21-98.67c-7.29-27.12-8.38-54.96-8.93-82.76c-0.92-46.82-1.22-93.64-1.78-140.47
	c0.56-46.67,0.87-93.33,1.78-139.98c0.53-26.97,1.53-53.99,8.29-80.35c15.68-61.11,55.41-96.9,116.77-108.14
	c22-4.03,44.67-5.63,67.07-6.03c63.31-1.13,126.64-1.41,189.96-1.35c38.98,0.04,77.97,1.08,116.95,2.13
	c24.72,0.66,49.17,3.76,72.61,12.19c47.25,17.01,76.29,50.59,89.21,98.67c4.95,18.43,7.51,37.29,7.83,56.29
	c1.07,64.14,1.93,128.29,2.28,192.44C746.44,472.71,745.84,511.04,745.03,549.36z M410.44,198.56
	c-116.08-0.22-210.31,93.71-210.4,209.71c-0.08,116.51,93.71,210.51,210.07,210.54c116.15,0.03,210.11-93.86,210.14-209.96
	C620.29,292.63,526.66,198.78,410.44,198.56z M408.86,545.61c-75.5-0.45-136.18-62.55-135.64-138.85
	c0.53-74.83,62.64-135.39,138.48-135.01c74.45,0.38,135.77,62.46,135.39,137.1C546.69,485.15,485.12,546.06,408.86,545.61z
	 M677.36,190.31c0.04,27.11-21.72,49.1-48.7,49.22c-27.08,0.12-49.42-22.17-49.35-49.24c0.07-27,22.02-48.83,49.11-48.83
	C655.6,141.46,677.32,163.14,677.36,190.31z"/>
</svg>
