<svg xmlns="http://www.w3.org/2000/svg" viewBox="0 0 980.15 558.58">
<path  d="M980.15,43.42v12c-0.81,2.84-1.59,5.69-2.43,8.52c-6.74,22.77-18.74,42.95-31.26,62.83
	c-24.02,38.11-52.06,73.31-79.14,109.22c-14.32,18.99-28.28,38.35-41,58.42c-10.47,16.51-7.96,33,4.67,48.02
	c2.25,2.68,4.56,5.33,7.06,7.77c22.39,21.9,45.05,43.53,67.21,65.67c24.32,24.3,47.06,49.96,64.72,79.73
	c4.77,8.04,7.58,16.59,8.88,25.76c1.92,13.58-2.29,22.83-14.7,28.68c-6.03,2.85-12.94,4.95-19.55,5.26
	c-22.46,1.05-44.97,1.11-67.46,1.61c-26.82,0.59-53.64,1.91-80.45,1.65c-25.18-0.24-47.3-10.8-65.6-27.14
	c-18.33-16.36-34.63-35.02-51.65-52.83c-10.81-11.3-20.76-23.5-32.18-34.13c-6.79-6.32-15.35-11.07-23.75-15.23
	c-7.72-3.82-15.66-2-22.34,3.71c-10.26,8.77-17.23,19.62-21.24,32.58c-5.49,17.72-6.98,35.82-6.96,54.26
	c0.02,20.69-9.26,31.76-28.67,35.32c-3.58,0.66-7.29,0.83-10.94,0.85c-18.83,0.11-37.67-0.2-56.49,0.21
	c-21.12,0.46-41.9-1.61-62.45-6.38c-34.74-8.05-66.68-22.43-96.79-41.47c-37.26-23.56-72.5-49.58-99.77-84.58
	c-25.17-32.31-50.2-64.87-73.05-98.82C88.96,241.95,43.25,153.41,3.85,61.58c-1.43-3.34-2.5-6.9-3.26-10.46
	C-1.67,40.43,2.57,32.16,12.96,28.6c5.57-1.9,11.68-3.01,17.56-3.08c46.16-0.57,92.32-0.84,138.48-1.12
	c16.39-0.1,31.94,10.45,38.27,25.67c1.85,4.45,3.48,9.02,5.6,13.35c18.91,38.53,37.48,77.23,57.06,115.42
	c9.09,17.73,19.67,34.77,30.51,51.52c9.9,15.32,22.18,28.72,37.71,38.79c8.07,5.23,16.57,5.6,25.34,2.55
	c1.86-0.65,3.79-2.21,4.85-3.88c5.86-9.21,10.09-19.12,11.83-29.97c5.72-35.64,8.53-71.42,5.81-107.54
	c-1.32-17.47-3.33-34.77-7.85-51.76c-4.63-17.39-15.24-28.88-32.36-34.23c-5.22-1.63-10.59-2.83-15.95-4.01
	c-5.26-1.16-6.22-2.89-3.41-7.52c1.46-2.4,3.31-4.59,5.18-6.7c12.75-14.4,29.82-19.26,48.01-21.73c37.14-5.05,74.47-4.94,111.77-3.5
	c15.74,0.61,31.45,3.21,47.05,5.68c18.27,2.89,30.45,13.16,33.62,31.95c1.65,9.8,2.95,19.83,2.79,29.73
	c-0.72,44.15-2.21,88.29-3.02,132.44c-0.23,12.29,0.48,24.64,1.55,36.89c0.96,10.94,4.28,21.22,12.61,29.16
	c7.12,6.79,16.44,8.18,23.94,1.91c10.31-8.62,20.71-17.49,29.31-27.72c21.61-25.7,38.77-54.54,55.6-83.48
	c20.45-35.17,37.43-72.05,52.26-109.91c2.93-7.48,6.6-14.94,14.22-17.86c6.29-2.41,13.55-2.97,20.4-3.09
	c51.81-0.85,103.62-1.42,155.43-1.98c5.48-0.06,11.06-0.02,16.42,0.95C964.89,27.61,975.72,30.87,980.15,43.42"/>
</svg>
