<svg xmlns="http://www.w3.org/2000/svg" viewBox="0 0 188.59 188.91">
<path d="M94.97,155.57c-0.1,1.69-0.01,3.4-0.01,5.1c-0.56,0-1.12,0-1.68,0c0-6.52,0.48-13.08-0.11-19.55
	c-0.89-9.68-1.62-19.53-4.06-28.88c-3.65-13.95-13.12-20.52-27.42-20.45c-3.74,0.02-5.34-1.26-6.05-4.72
	c-2.78-13.6-4.78-27.12,2.71-40.01c7.99-13.76,20.1-22.19,35.74-22.65c12.01-0.35,22.63,5.54,30.79,14.95
	c13.06,15.05,12.02,32.14,7.21,49.72c-0.3,1.09-2.26,2.54-3.36,2.47c-18.97-1.15-29.24,12.79-31.4,29.26
	C95.8,132.3,95.68,143.98,94.97,155.57z M187.7,112.81c1.76-15.91,0.36-32.17,0.36-48.71c-12.77-2.15-25.54-4.3-38.95-6.56
	c1.69,13.8,0.49,26.42-2.76,38.88c-2.31,8.86-2.2,8.89-11.4,8.58c-10.41-0.35-17.12,3.67-20.82,12.85
	c-5.14,12.77-5.04,26.2-5.07,40.22c15.43-3.17,30.19-5.61,44.62-9.31C172.31,144.02,185.52,132.4,187.7,112.81z M27.17,21.08
	c5.02,1.08,10.24,1.44,15.09,2.99c7.68,2.45,14.03,1.28,19.31-4.94c0.41-0.48,1.1-0.73,1.67-1.06c25.45-15.16,65.31-10.09,81.02,21
	c0.63,1.24,2.2,2.58,3.52,2.82c13.32,2.42,26.68,4.62,40.47,6.96c0-8.05,0.01-15.69,0-23.33c-0.02-15.19-10.39-25.49-25.72-25.5
	C116.92-0.01,71.3,0,25.68,0c-5.97,0-11.4,1.58-16.14,5.27C12.45,13.99,18.38,19.19,27.17,21.08z M79.35,161.21
	c-0.45-10.61-0.31-21.35-2.02-31.78c-3.36-20.5-8.13-24.1-29.06-24.36c-2.75-0.03-4.44-0.65-4.93-3.44
	c-1.63-9.28-3.91-18.5-4.68-27.85C37.71,62.41,38.64,51,43.87,39.72c-9.91-1.65-19.07-3.17-28.7-4.77
	c9.41,45.88,18.65,90.96,28.04,136.74c11.67-2.38,22.72-4.54,33.71-7C77.97,164.45,79.4,162.38,79.35,161.21z M163.72,162.07
	c-32.95,6.64-65.88,13.41-98.81,20.16c-6.19,1.27-12.35,2.65-18.53,3.98c-0.01,0.52-0.02,1.05-0.03,1.57
	c1.39,0.37,2.78,1.06,4.17,1.06c37.95,0.06,75.9,0.14,113.85-0.01c11.29-0.04,21.48-7.93,23.37-18.75
	c1.12-6.43,0.21-13.22,0.21-20.66C180.6,155.74,172.88,160.23,163.72,162.07z M18.19,124.24C12.44,96.56,6.68,68.89,0.65,39.89
	c-0.45,1.9-0.6,2.22-0.6,2.54c-0.03,40.83-0.15,81.66,0.1,122.49c0.02,4.07,2.12,8.19,3.63,12.14c0.35,0.93,2.31,1.9,3.4,1.76
	c3.1-0.39,6.21-1.1,9.18-2.11c6.38-2.17,11.39-10.04,9.29-17.53C22.45,147.73,20.62,135.9,18.19,124.24z"/>
</svg>
