<svg xmlns="http://www.w3.org/2000/svg" viewBox="0 0 150 85.49">
<path d="M150,6.64v1.84c-0.12,0.43-0.24,0.87-0.37,1.3c-1.03,3.48-2.87,6.57-4.78,9.62c-3.68,5.83-7.97,11.22-12.11,16.71
	c-2.19,2.91-4.33,5.87-6.27,8.94c-1.6,2.53-1.22,5.05,0.71,7.35c0.34,0.41,0.7,0.82,1.08,1.19c3.43,3.35,6.89,6.66,10.29,10.05
	c3.72,3.72,7.2,7.65,9.9,12.2c0.73,1.23,1.16,2.54,1.36,3.94c0.29,2.08-0.35,3.49-2.25,4.39c-0.92,0.44-1.98,0.76-2.99,0.8
	c-3.44,0.16-6.88,0.17-10.32,0.25c-4.1,0.09-8.21,0.29-12.31,0.25c-3.85-0.04-7.24-1.65-10.04-4.15c-2.81-2.5-5.3-5.36-7.9-8.08
	c-1.65-1.73-3.18-3.6-4.92-5.22c-1.04-0.97-2.35-1.69-3.63-2.33c-1.18-0.58-2.4-0.31-3.42,0.57c-1.57,1.34-2.64,3-3.25,4.99
	c-0.84,2.71-1.07,5.48-1.07,8.3c0,3.17-1.42,4.86-4.39,5.41c-0.55,0.1-1.12,0.13-1.67,0.13c-2.88,0.02-5.76-0.03-8.65,0.03
	c-3.23,0.07-6.41-0.25-9.56-0.98c-5.32-1.23-10.2-3.43-14.81-6.35c-5.7-3.61-11.1-7.59-15.27-12.94
	c-3.85-4.94-7.68-9.93-11.18-15.12C13.61,37.03,6.62,23.48,0.59,9.42c-0.22-0.51-0.38-1.06-0.5-1.6c-0.35-1.64,0.3-2.9,1.89-3.45
	c0.85-0.29,1.79-0.46,2.69-0.47c7.06-0.09,14.13-0.13,21.19-0.17c2.51-0.02,4.89,1.6,5.86,3.93c0.28,0.68,0.53,1.38,0.86,2.04
	c2.89,5.9,5.74,11.82,8.73,17.66c1.39,2.71,3.01,5.32,4.67,7.88c1.52,2.34,3.39,4.4,5.77,5.94c1.24,0.8,2.54,0.86,3.88,0.39
	c0.28-0.1,0.58-0.34,0.74-0.59c0.9-1.41,1.54-2.93,1.81-4.59c0.88-5.45,1.31-10.93,0.89-16.46c-0.2-2.67-0.51-5.32-1.2-7.92
	c-0.71-2.66-2.33-4.42-4.95-5.24c-0.8-0.25-1.62-0.43-2.44-0.61c-0.8-0.18-0.95-0.44-0.52-1.15c0.22-0.37,0.51-0.7,0.79-1.03
	c1.95-2.2,4.56-2.95,7.35-3.33c5.68-0.77,11.4-0.76,17.11-0.54c2.41,0.09,4.81,0.49,7.2,0.87c2.8,0.44,4.66,2.01,5.15,4.89
	c0.25,1.5,0.45,3.03,0.43,4.55c-0.11,6.76-0.34,13.51-0.46,20.27c-0.04,1.88,0.07,3.77,0.24,5.65c0.15,1.67,0.66,3.25,1.93,4.46
	c1.09,1.04,2.52,1.25,3.66,0.29c1.58-1.32,3.17-2.68,4.49-4.24c3.31-3.93,5.93-8.35,8.51-12.78c3.13-5.38,5.73-11.03,8-16.82
	c0.45-1.14,1.01-2.29,2.18-2.73c0.96-0.37,2.07-0.45,3.12-0.47c7.93-0.13,15.86-0.22,23.79-0.3c0.84-0.01,1.69,0,2.51,0.15
	C147.66,4.23,149.32,4.72,150,6.64"/>
</svg>
