<svg xmlns="http://www.w3.org/2000/svg" viewBox="0 0 226.32 32.47"><path d="M125.62 5.18c0-1.86 1.14-2.97 2.6-3.92C130 .11 132.47-.19 134.54.11c1.89.27 3.76 1.06 5.05 2.5.55.61.95 1.63.95 2.46v22.32c0 1.69-1.2 2.99-2.57 3.81-1.68 1-3.23 1.25-5.18 1.25-2.8 0-7.17-1.75-7.17-5.06V5.18zm5.9 24.2c0 .23.29.5.47.62.54.36 1.23.4 1.83.18.3-.11.83-.42.83-.8V3.12c0-.26-.27-.52-.46-.66-.07-.05-.14-.09-.22-.13-.24-.12-.52-.17-.79-.17-.52-.01-1.66.28-1.66.96v26.26zM204.47 2.3h-2.27v11.92h5.31v2.13h-5.31V30.2h2.27v-8.5h5.9v10.63h-14.65c-.21 0-.41-.07-.57-.21-.36-.33-.27-.82-.27-1.25v-.67h1.43V2.33c-.51.02-1.04-.02-1.3-.42a.79.79 0 01-.13-.45V.17h15.49V10.8h-5.9V2.3zm-17.56 0h-2.33v11.92h5.37v2.13h-5.37V30.2h2.33v-8.5h5.84v10.63h-15.43V30.2h1.37V2.3h-1.37V.17h15.43V10.8h-5.84V2.3zM107.83 5c0-.84.42-1.83.99-2.44.15-.16.31-.31.47-.46 1.2-1.06 2.74-1.69 4.3-1.95 2.15-.36 4.74-.09 6.59 1.13.68.45 1.2.8 1.7 1.48.57.76.86 1.5.86 2.47v5.57h-5.9V3.23c0-.14-.03-.27-.1-.4-.44-.76-1.84-.87-2.53-.39-.19.13-.49.36-.49.62v26.32c0 .24.26.48.44.6.55.37 1.24.43 1.85.19.32-.12.83-.46.83-.85V21.7h5.9v5.52c0 2.65-2.37 4.16-4.63 4.87-2.96.92-7.34.19-9.38-2.29-.54-.66-.91-1.49-.91-2.35V5h.01zm43.99-2.7h-2.04v12.03h5.08v2.13h-5.08V30.2h1.43v2.13h-8.69V30.2h1.37V2.3h-1.37V.17h15.14V10.8h-5.84V2.3zm17.26 0h-1.98v12.03h5.03v2.13h-5.03V30.2h1.37v2.13h-8.69V30.2h1.43V2.3h-1.43V.17h15.15V10.8h-5c-.5 0-.83-.33-.83-.84V2.3h-.02zM3.1 13.14c1.71 0 3.1 1.39 3.1 3.1s-1.39 3.1-3.1 3.1c-1.71 0-3.1-1.39-3.1-3.1s1.39-3.1 3.1-3.1zm220.12 0c1.71 0 3.1 1.39 3.1 3.1s-1.39 3.1-3.1 3.1-3.1-1.39-3.1-3.1 1.39-3.1 3.1-3.1zM17.36 30.63V2.07h-.06c-.41.02-.97.12-1.24-.29-.06-.1-.1-.21-.1-.33V.25h8.54c1.48 0 2.75.33 4.06.99 1.43.72 2.87 2.2 2.87 3.9v22.39c0 1.3-.77 2.38-1.74 3.18-1.66 1.36-3.74 1.76-5.84 1.76H16.6a.66.66 0 01-.4-.13c-.35-.28-.24-.8-.24-1.2v-.5h1.4v-.01zm5.48-28.56v28.56h1.45c.65 0 1.67-.43 1.67-1.19V3.23c0-.48-.58-.94-1-1.06-.28-.08-1.49-.13-2.12-.1zM46.67 15.5c.07.03.13.06.19.09.77.39 1.47.9 1.99 1.6.62.83.82 1.81.82 2.83v9.68c0 .77.03.93.84.93h.51v1.83h-.51c-1.35 0-2.94.09-4.21-.39-1.97-.74-2.16-2.43-2.16-4.29v-8.42c0-.46.1-1.92-.15-2.27-.34-.46-.91-.7-1.47-.7h-1.45v14.22h.75c.38 0 .63.25.63.64 0 .36.09.79-.22 1.05-.12.1-.26.15-.42.15h-7.62v-1.83h1.39V2.08h-1.39V.25h8.49c1.24 0 2.67.28 3.78.86l.76.42.01.01c.01.01.02.01.02.02.02.01.03.02.05.03 1.67 1.05 2.35 2.27 2.35 4.25v4.95c0 1.48-.19 2.46-1.27 3.54-.4.4-.84.73-1.35.99-.1.06-.23.12-.36.18zM41.08 2.07v12.5h1.67c.13 0 .41-.08.53-.13.39-.17.87-.54.87-1.02V3.14c0-.19-.21-.46-.34-.59-.12-.12-.26-.22-.42-.29-.6-.27-1.53-.22-2.31-.19zm47.97 0h-.24c-.36-.01-.73-.01-1.09 0-.42 0-.84.01-1.26.02v12.36h5.25v1.83h-5.25v14.35h2.59v-8.59h5.48v9.79c0 .38-.26.63-.64.63H80.22a.66.66 0 01-.4-.13c-.35-.28-.24-.8-.24-1.2v-.5h1.39V2.08h-.75c-.38 0-.64-.26-.64-.64V.24h14.94v10.43h-5.48v-8.6h.01zm-29.29.01v28.55h1.34v1.83h-8.2v-1.83h1.34V2.08H52.9V.25h8.21v1.83h-1.35zm4.51 0h-.79c-.38 0-.64-.26-.64-.64V.24h8.22v1.83h-1.29l.64 6.06c.15 1.11.23 2.22.37 3.32.35 2.75.54 5.52.89 8.26l.37 3.32.03.25 2.44-18.59.32-2.63h-2.17V.25h5.93v1.83h-1.47l-3.87 30.38h-4.79c-.14 0-.28-.04-.39-.13-.25-.2-.25-.44-.28-.71-.19-1.75-.46-3.49-.62-5.24l-1.03-8.57c-.11-1-.24-2.01-.36-3.01l-.6-4.96-.66-5.47c-.07-.63-.15-1.26-.22-1.88.01-.13-.01-.27-.03-.41z"/></svg>