<svg xmlns="http://www.w3.org/2000/svg" viewBox="0 0 1005.89 846.99"><path d="M535.64 664.17c-8.71 8.4-17.21 16.59-25.7 24.8-27.68 26.75-55.16 53.72-83.13 80.17-11.81 11.16-25.3 20.11-41.64 23.63-2.57.55-5.24.66-8.64 1.06.44-6.7.8-12.94 1.28-19.17 3.95-50.83 7.93-101.65 11.9-152.47 1.62-20.76 3.2-41.53 5.02-62.27.18-2.02 1.55-4.35 3.09-5.76 39.17-35.95 78.43-71.79 117.67-107.64 101.87-93.08 203.73-186.15 305.57-279.26 2.69-2.46 5.35-5.08 7.47-8.01 3.95-5.46 2.16-9.91-4.46-11.44-7.15-1.65-13.97-.26-20.23 3.34-5.91 3.4-11.58 7.21-17.36 10.84-171.37 107.86-342.75 215.7-514.03 323.69-5.11 3.22-9.35 3.81-15.16 2.01-73.42-22.71-146.93-45.11-220.4-67.67-7.44-2.29-15.12-4.28-22.04-7.73-15.75-7.84-18.96-20.69-9.77-35.58 5.67-9.18 14.13-15.23 23.69-19.25 23.14-9.74 46.47-19.05 69.88-28.11 124.74-48.25 249.53-96.38 374.3-144.54C627.87 125.04 782.75 65.25 937.67 5.6c6.16-2.37 12.73-3.98 19.26-5.05 26.85-4.38 44 18.34 47.61 36.64 2.81 14.22.78 28.13-2.2 42.08-19.32 90.49-38.53 181-57.77 271.5-20.87 98.15-41.73 196.31-62.59 294.46-10.45 49.16-20.7 98.36-31.48 147.45-2.23 10.15-5.4 20.35-9.84 29.72-10.12 21.4-27.01 28.63-49.93 22.48-12.15-3.26-23.24-8.64-33.44-16.24-72.81-54.23-145.76-108.27-218.67-162.37-.79-.59-1.62-1.15-2.98-2.1"/></svg>