<svg xmlns="http://www.w3.org/2000/svg" viewBox="0 0 1005.89 846.99">
<path d="M535.64,664.17c-8.71,8.4-17.21,16.59-25.7,24.8c-27.68,26.75-55.16,53.72-83.13,80.17
	c-11.81,11.16-25.3,20.11-41.64,23.63c-2.57,0.55-5.24,0.66-8.64,1.06c0.44-6.7,0.8-12.94,1.28-19.17
	c3.95-50.83,7.93-101.65,11.9-152.47c1.62-20.76,3.2-41.53,5.02-62.27c0.18-2.02,1.55-4.35,3.09-5.76
	c39.17-35.95,78.43-71.79,117.67-107.64c101.87-93.08,203.73-186.15,305.57-279.26c2.69-2.46,5.35-5.08,7.47-8.01
	c3.95-5.46,2.16-9.91-4.46-11.44c-7.15-1.65-13.97-0.26-20.23,3.34c-5.91,3.4-11.58,7.21-17.36,10.84
	c-171.37,107.86-342.75,215.7-514.03,323.69c-5.11,3.22-9.35,3.81-15.16,2.01c-73.42-22.71-146.93-45.11-220.4-67.67
	c-7.44-2.29-15.12-4.28-22.04-7.73c-15.75-7.84-18.96-20.69-9.77-35.58c5.67-9.18,14.13-15.23,23.69-19.25
	c23.14-9.74,46.47-19.05,69.88-28.11c124.74-48.25,249.53-96.38,374.3-144.54C627.87,125.04,782.75,65.25,937.67,5.6
	c6.16-2.37,12.73-3.98,19.26-5.05c26.85-4.38,44,18.34,47.61,36.64c2.81,14.22,0.78,28.13-2.2,42.08
	c-19.32,90.49-38.53,181-57.77,271.5c-20.87,98.15-41.73,196.31-62.59,294.46c-10.45,49.16-20.7,98.36-31.48,147.45
	c-2.23,10.15-5.4,20.35-9.84,29.72c-10.12,21.4-27.01,28.63-49.93,22.48c-12.15-3.26-23.24-8.64-33.44-16.24
	c-72.81-54.23-145.76-108.27-218.67-162.37C537.83,665.68,537,665.12,535.64,664.17"/>
</svg>
