<?xml version="1.0" standalone="no"?>
<!DOCTYPE svg PUBLIC "-//W3C//DTD SVG 20010904//EN"
 "http://www.w3.org/TR/2001/REC-SVG-20010904/DTD/svg10.dtd">
<svg version="1.0" xmlns="http://www.w3.org/2000/svg"
 width="440.000000pt" height="440.000000pt" viewBox="0 0 440.000000 440.000000"
 preserveAspectRatio="xMidYMid meet">
<metadata>
Created by potrace 1.11, written by Peter Selinger 2001-2013
</metadata>
<g transform="translate(0.000000,440.000000) scale(0.100000,-0.100000)"
fill="#000000" stroke="none">
<path d="M2029 4396 c-2 -2 -33 -6 -69 -10 -36 -3 -74 -8 -85 -10 -11 -2 -40
-7 -65 -11 -165 -26 -395 -102 -575 -190 -379 -186 -687 -465 -907 -821 -64
-103 -113 -199 -152 -294 -15 -36 -31 -74 -35 -85 -23 -54 -66 -192 -77 -248
-2 -10 -6 -27 -9 -36 -10 -32 -35 -184 -43 -256 -13 -136 -5 -535 12 -564 2
-3 7 -28 10 -56 10 -69 52 -235 83 -325 186 -535 562 -974 1055 -1235 243
-128 515 -211 793 -243 77 -9 378 -9 471 0 101 10 302 52 414 87 776 241 1350
882 1511 1686 27 133 37 269 34 455 -2 107 -6 206 -8 220 -3 14 -11 59 -17
100 -16 98 -15 95 -35 170 -175 692 -665 1252 -1325 1515 -153 61 -371 117
-545 141 -38 5 -432 14 -436 10z"/>
</g>
</svg>
